<svg xmlns="http://www.w3.org/2000/svg" width="89.912" height="61.846" viewBox="0 0 89.912 61.846">
  <g id="Grupo_553" data-name="Grupo 553" transform="translate(-18165.08 77.959)">
    <rect id="Rectángulo_627" data-name="Rectángulo 627" width="89.911" height="61.846" transform="translate(18165.08 -77.959)" fill="#ffce00"/>
    <g id="Grupo_552" data-name="Grupo 552" transform="translate(18175.469 -55.023)">
      <path id="Trazado_689" data-name="Trazado 689" d="M951.612,256.55h.7v5.224h-.751v-4.065l-1.606,2.02h-.139l-1.625-2.02v4.065h-.748V256.55h.708l1.736,2.145Z" transform="translate(-947.442 -256.475)" fill="#020202"/>
      <path id="Trazado_690" data-name="Trazado 690" d="M954.379,256.55h.748v5.224h-.748Z" transform="translate(-948.247 -256.475)" fill="#020202"/>
      <path id="Trazado_691" data-name="Trazado 691" d="M960.838,256.55h.711v5.224h-.643l-3.493-4.024v4.024h-.7V256.55h.605l3.523,4.057Z" transform="translate(-948.517 -256.475)" fill="#020202"/>
      <path id="Trazado_692" data-name="Trazado 692" d="M963.6,256.55h.748v5.224H963.6Z" transform="translate(-949.317 -256.475)" fill="#020202"/>
      <path id="Trazado_693" data-name="Trazado 693" d="M967.169,259.577l-.568-.346a2.568,2.568,0,0,1-.761-.643,1.216,1.216,0,0,1-.226-.728,1.286,1.286,0,0,1,.428-1,1.6,1.6,0,0,1,1.113-.385,2.106,2.106,0,0,1,1.2.367v.85a1.73,1.73,0,0,0-1.215-.544,1.006,1.006,0,0,0-.6.17.514.514,0,0,0-.236.434.667.667,0,0,0,.174.439,2.175,2.175,0,0,0,.558.43l.571.338a1.675,1.675,0,0,1,.957,1.453,1.333,1.333,0,0,1-.421,1.021,1.541,1.541,0,0,1-1.094.392,2.3,2.3,0,0,1-1.41-.476V260.4a1.763,1.763,0,0,0,1.4.767.883.883,0,0,0,.585-.2.615.615,0,0,0,.233-.491C967.856,260.164,967.628,259.861,967.169,259.577Z" transform="translate(-949.55 -256.466)" fill="#020202"/>
      <path id="Trazado_694" data-name="Trazado 694" d="M969.521,256.541h4.364v.666h-1.821v4.567h-.751v-4.567h-1.792Z" transform="translate(-950.004 -256.474)" fill="#020202"/>
      <path id="Trazado_695" data-name="Trazado 695" d="M975.4,256.55h2.961v.666h-2.214v1.593h2.139v.669h-2.139V261.1h2.285v.666H975.4Z" transform="translate(-950.687 -256.475)" fill="#020202"/>
      <path id="Trazado_696" data-name="Trazado 696" d="M979.91,261.774V256.55h1.308a1.891,1.891,0,0,1,1.259.392,1.318,1.318,0,0,1,.465,1.063,1.308,1.308,0,0,1-.882,1.286,2.3,2.3,0,0,1,.49.448,8.989,8.989,0,0,1,.674.991c.182.3.327.521.438.67l.277.374h-.89l-.228-.345a.7.7,0,0,0-.045-.064l-.145-.205-.232-.382-.25-.408a4.151,4.151,0,0,0-.424-.513,1.637,1.637,0,0,0-.348-.274,1.169,1.169,0,0,0-.522-.084h-.195v2.274Zm.972-4.589h-.224v1.65h.284a2.112,2.112,0,0,0,.78-.1.731.731,0,0,0,.329-.293.852.852,0,0,0,.119-.447.8.8,0,0,0-.131-.446.7.7,0,0,0-.369-.283A2.659,2.659,0,0,0,980.881,257.186Z" transform="translate(-951.209 -256.475)" fill="#020202"/>
      <path id="Trazado_697" data-name="Trazado 697" d="M985.273,256.55h.748v5.224h-.748Z" transform="translate(-951.832 -256.475)" fill="#020202"/>
      <path id="Trazado_698" data-name="Trazado 698" d="M990.111,256.465a2.808,2.808,0,0,1,2.016.767,2.543,2.543,0,0,1,.805,1.922,2.5,2.5,0,0,1-.813,1.913,2.89,2.89,0,0,1-2.05.757,2.727,2.727,0,0,1-1.968-.757,2.525,2.525,0,0,1-.786-1.9,2.579,2.579,0,0,1,.792-1.937A2.759,2.759,0,0,1,990.111,256.465Zm.03.711a2.029,2.029,0,0,0-1.474.561,1.911,1.911,0,0,0-.577,1.432,1.878,1.878,0,0,0,.579,1.406,2.152,2.152,0,0,0,2.909-.011,1.913,1.913,0,0,0,.584-1.425,1.868,1.868,0,0,0-.584-1.4A1.987,1.987,0,0,0,990.141,257.176Z" transform="translate(-952.069 -256.465)" fill="#020202"/>
      <path id="Trazado_699" data-name="Trazado 699" d="M947.468,270.974v-5.217h1.761a3.718,3.718,0,0,1,1.687.32,2.411,2.411,0,0,1,.987.941,2.618,2.618,0,0,1,.366,1.354,2.558,2.558,0,0,1-.2,1,2.582,2.582,0,0,1-1.462,1.406,2.619,2.619,0,0,1-.542.155,7.178,7.178,0,0,1-.942.04Zm1.682-4.551h-.934v3.885h.957a3.81,3.81,0,0,0,.871-.077,2.045,2.045,0,0,0,.518-.194,1.766,1.766,0,0,0,.38-.29,1.935,1.935,0,0,0,.553-1.417,1.793,1.793,0,0,0-.568-1.373,1.819,1.819,0,0,0-.481-.325,2.026,2.026,0,0,0-.514-.168A5.237,5.237,0,0,0,949.15,266.424Z" transform="translate(-947.445 -257.543)" fill="#020202"/>
      <path id="Trazado_700" data-name="Trazado 700" d="M954.1,265.757h2.962v.667h-2.214v1.593h2.139v.669h-2.139v1.623h2.285v.666H954.1Z" transform="translate(-948.215 -257.543)" fill="#020202"/>
      <path id="Trazado_701" data-name="Trazado 701" d="M964.759,265.757h.751v2.966a3.531,3.531,0,0,1-.088.909,1.937,1.937,0,0,1-.217.511,1.625,1.625,0,0,1-.316.364,2.76,2.76,0,0,1-3.261,0,1.706,1.706,0,0,1-.316-.368,1.88,1.88,0,0,1-.213-.5,3.664,3.664,0,0,1-.085-.927v-2.959h.752v2.966a2.2,2.2,0,0,0,.168,1.025,1.2,1.2,0,0,0,.512.462,1.784,1.784,0,0,0,.812.174,1.643,1.643,0,0,0,1.084-.348,1.069,1.069,0,0,0,.318-.441,2.723,2.723,0,0,0,.1-.872Z" transform="translate(-949.017 -257.543)" fill="#020202"/>
      <path id="Trazado_702" data-name="Trazado 702" d="M971.573,265.757h.711v5.224h-.644l-3.493-4.023v4.023h-.7v-5.224h.606l3.523,4.058Z" transform="translate(-949.763 -257.543)" fill="#020202"/>
      <path id="Trazado_703" data-name="Trazado 703" d="M974.339,265.757h.749v5.224h-.749Z" transform="translate(-950.563 -257.543)" fill="#020202"/>
      <path id="Trazado_704" data-name="Trazado 704" d="M979.877,265.757h.745L978.413,271h-.169l-2.251-5.247h.752l1.572,3.668Z" transform="translate(-950.755 -257.543)" fill="#020202"/>
      <path id="Trazado_705" data-name="Trazado 705" d="M982.025,265.757h2.961v.667h-2.214v1.593h2.139v.669h-2.139v1.623h2.285v.666h-3.033Z" transform="translate(-951.455 -257.543)" fill="#020202"/>
      <path id="Trazado_706" data-name="Trazado 706" d="M986.529,270.981v-5.224h1.309a1.888,1.888,0,0,1,1.258.393,1.316,1.316,0,0,1,.466,1.062,1.306,1.306,0,0,1-.882,1.286,2.326,2.326,0,0,1,.49.449,9.044,9.044,0,0,1,.673.991q.273.446.438.669l.277.374h-.889l-.228-.344q-.012-.019-.045-.064l-.146-.206-.232-.382-.25-.407a3.919,3.919,0,0,0-.424-.512,1.6,1.6,0,0,0-.348-.275,1.177,1.177,0,0,0-.521-.084h-.2v2.274Zm.972-4.588h-.224v1.649h.285a2.1,2.1,0,0,0,.78-.1.731.731,0,0,0,.329-.293.847.847,0,0,0,.118-.446.8.8,0,0,0-.131-.447.7.7,0,0,0-.368-.282A2.663,2.663,0,0,0,987.5,266.393Z" transform="translate(-951.977 -257.543)" fill="#020202"/>
      <path id="Trazado_707" data-name="Trazado 707" d="M993.144,268.784l-.568-.345a2.607,2.607,0,0,1-.761-.643,1.218,1.218,0,0,1-.226-.728,1.286,1.286,0,0,1,.428-1,1.6,1.6,0,0,1,1.113-.385,2.108,2.108,0,0,1,1.2.368v.849a1.732,1.732,0,0,0-1.215-.543,1,1,0,0,0-.6.17.512.512,0,0,0-.236.433.671.671,0,0,0,.174.44,2.2,2.2,0,0,0,.558.43l.571.339a1.673,1.673,0,0,1,.956,1.453,1.333,1.333,0,0,1-.421,1.021,1.541,1.541,0,0,1-1.094.392,2.293,2.293,0,0,1-1.409-.476v-.95a1.759,1.759,0,0,0,1.4.768.879.879,0,0,0,.585-.2.612.612,0,0,0,.233-.49Q993.831,269.212,993.144,268.784Z" transform="translate(-952.564 -257.534)" fill="#020202"/>
      <path id="Trazado_708" data-name="Trazado 708" d="M996.008,265.757h.748v5.224h-.748Z" transform="translate(-953.077 -257.543)" fill="#020202"/>
      <path id="Trazado_709" data-name="Trazado 709" d="M998.321,270.974v-5.217h1.762a3.718,3.718,0,0,1,1.687.32,2.418,2.418,0,0,1,.987.941,2.618,2.618,0,0,1,.366,1.354,2.557,2.557,0,0,1-.778,1.843,2.529,2.529,0,0,1-.886.565,2.63,2.63,0,0,1-.543.155,7.161,7.161,0,0,1-.942.04Zm1.683-4.551h-.935v3.885h.957a3.819,3.819,0,0,0,.872-.077,2.06,2.06,0,0,0,.518-.194,1.741,1.741,0,0,0,.379-.29,1.932,1.932,0,0,0,.553-1.417,1.793,1.793,0,0,0-.568-1.373,1.814,1.814,0,0,0-.48-.325,2.047,2.047,0,0,0-.514-.168A5.24,5.24,0,0,0,1000,266.424Z" transform="translate(-953.346 -257.543)" fill="#020202"/>
      <path id="Trazado_710" data-name="Trazado 710" d="M1006.072,265.724h.525l2.343,5.253h-.766l-.7-1.548h-2.229l-.652,1.548h-.769Zm1.1,3.04-.843-1.893-.781,1.893Z" transform="translate(-953.985 -257.539)" fill="#020202"/>
      <path id="Trazado_711" data-name="Trazado 711" d="M1010.414,270.974v-5.217h1.762a3.718,3.718,0,0,1,1.687.32,2.417,2.417,0,0,1,.987.941,2.62,2.62,0,0,1,.366,1.354,2.557,2.557,0,0,1-.778,1.843,2.528,2.528,0,0,1-.886.565,2.63,2.63,0,0,1-.543.155,7.161,7.161,0,0,1-.942.04Zm1.683-4.551h-.935v3.885h.958a3.809,3.809,0,0,0,.871-.077,2.059,2.059,0,0,0,.518-.194,1.741,1.741,0,0,0,.379-.29,1.932,1.932,0,0,0,.554-1.417,1.8,1.8,0,0,0-.568-1.373,1.837,1.837,0,0,0-.481-.325,2.036,2.036,0,0,0-.514-.168A5.24,5.24,0,0,0,1012.1,266.424Z" transform="translate(-954.749 -257.543)" fill="#020202"/>
      <path id="Trazado_712" data-name="Trazado 712" d="M1017.051,265.757h2.961v.667H1017.8v1.593h2.139v.669H1017.8v1.623h2.285v.666h-3.033Z" transform="translate(-955.519 -257.543)" fill="#020202"/>
      <path id="Trazado_713" data-name="Trazado 713" d="M1022.79,268.784l-.568-.345a2.607,2.607,0,0,1-.761-.643,1.217,1.217,0,0,1-.226-.728,1.287,1.287,0,0,1,.429-1,1.6,1.6,0,0,1,1.112-.385,2.106,2.106,0,0,1,1.2.368v.849a1.733,1.733,0,0,0-1.215-.543,1.006,1.006,0,0,0-.6.17.512.512,0,0,0-.235.433.67.67,0,0,0,.173.44,2.193,2.193,0,0,0,.558.43l.571.339a1.673,1.673,0,0,1,.956,1.453,1.333,1.333,0,0,1-.421,1.021,1.539,1.539,0,0,1-1.094.392,2.3,2.3,0,0,1-1.409-.476v-.95a1.759,1.759,0,0,0,1.4.768.878.878,0,0,0,.585-.2.612.612,0,0,0,.233-.49Q1023.478,269.212,1022.79,268.784Z" transform="translate(-956.004 -257.534)" fill="#020202"/>
    </g>
  </g>
</svg>
