<svg width="512" height="512" viewBox="0 0 512 512" fill="none" xmlns="http://www.w3.org/2000/svg">
<g clip-path="url(#clip0_207_44)">
<path fill-rule="evenodd" clip-rule="evenodd" d="M376 204C376 298.993 298.993 376 204 376C109.007 376 32 298.993 32 204C32 109.007 109.007 32 204 32C298.993 32 376 109.007 376 204ZM336.494 359.122C300.849 389.597 254.574 408 204 408C91.3339 408 0 316.666 0 204C0 91.3339 91.3339 0 204 0C316.666 0 408 91.3339 408 204C408 254.574 389.597 300.849 359.122 336.494L507.314 484.686C513.562 490.935 513.562 501.065 507.314 507.314C501.065 513.562 490.935 513.562 484.686 507.314L336.494 359.122Z" fill="black"/>
</g>
<defs>
<clipPath id="clip0_207_44">
<rect width="512" height="512" fill="white"/>
</clipPath>
</defs>
</svg>
